<svg width="300" height="353" viewBox="0 0 300 353" fill="none" xmlns="http://www.w3.org/2000/svg">
<path d="M293.712 275.049C288.326 287.379 281.951 298.729 274.564 309.164C264.496 323.391 256.251 333.238 249.898 338.707C240.048 347.682 229.496 352.279 218.195 352.541C210.083 352.541 200.301 350.254 188.912 345.612C177.487 340.994 166.987 338.707 157.387 338.707C147.318 338.707 136.519 340.994 124.969 345.612C113.4 350.254 104.081 352.671 96.9559 352.911C86.1198 353.368 75.3187 348.641 64.5376 338.707C57.6565 332.758 49.0495 322.564 38.7388 308.119C27.6762 292.694 18.5813 274.809 11.4561 254.418C3.82535 232.392 0 211.064 0 190.415C0 166.762 5.15753 146.362 15.4881 129.266C23.607 115.535 34.4079 104.703 47.9261 96.7509C61.4444 88.7991 76.0509 84.747 91.7808 84.4876C100.388 84.4876 111.674 87.126 125.701 92.3111C139.687 97.5134 148.668 100.152 152.605 100.152C155.548 100.152 165.526 97.0668 182.439 90.9168C198.432 85.2131 211.931 82.8515 222.988 83.7819C252.953 86.1782 275.465 97.8838 290.437 118.972C263.638 135.064 250.382 157.601 250.645 186.514C250.886 209.033 259.131 227.772 275.333 242.652C282.676 249.559 290.876 254.896 300 258.686C298.022 264.374 295.932 269.82 293.712 275.049ZM224.989 7.06084C224.989 24.7119 218.481 41.1926 205.511 56.4471C189.858 74.5816 170.924 85.0606 150.394 83.4071C150.132 81.2896 149.98 79.0608 149.98 76.7188C149.98 59.7738 157.424 41.6393 170.644 26.8119C177.244 19.3045 185.636 13.0622 195.815 8.08258C205.973 3.17728 215.58 0.464545 224.615 0C224.878 2.35968 224.989 4.71972 224.989 7.06084Z" fill="white"/>
</svg>
