<svg width="300" height="300" viewBox="0 0 300 300" fill="none" xmlns="http://www.w3.org/2000/svg">
<path fill-rule="evenodd" clip-rule="evenodd" d="M288 153.268C288 143.074 287.085 133.273 285.386 123.864H150V179.469H227.364C224.031 197.438 213.904 212.663 198.679 222.855V258.924H245.136C272.319 233.898 288 197.046 288 153.268Z" fill="#4285F4"/>
<path fill-rule="evenodd" clip-rule="evenodd" d="M150 293.748C188.812 293.748 221.351 280.875 245.136 258.921L198.679 222.853C185.806 231.478 169.34 236.574 150 236.574C112.559 236.574 80.8689 211.288 69.5649 177.31H21.5392V214.555C45.1927 261.535 93.8064 293.748 150 293.748Z" fill="#34A853"/>
<path fill-rule="evenodd" clip-rule="evenodd" d="M69.5654 177.314C66.6904 168.689 65.0569 159.475 65.0569 150.001C65.0569 140.526 66.6904 131.314 69.5654 122.688V85.4438H21.5398C11.804 104.85 6.25 126.805 6.25 150.001C6.25 173.196 11.804 195.151 21.5398 214.557L69.5654 177.314Z" fill="#FBBC05"/>
<path fill-rule="evenodd" clip-rule="evenodd" d="M150 63.4233C171.105 63.4233 190.054 70.6761 204.951 84.9205L246.181 43.6904C221.286 20.4944 188.746 6.25 150 6.25C93.8064 6.25 45.1927 38.4631 21.5392 85.4431L69.5649 122.687C80.8689 88.7102 112.559 63.4233 150 63.4233Z" fill="#EA4335"/>
</svg>
