<svg width="253" height="100" viewBox="0 0 253 100" fill="none" xmlns="http://www.w3.org/2000/svg">
<path fill-rule="evenodd" clip-rule="evenodd" d="M60.2719 43.9063L41.8827 0L0 100H36.7783H83.7654H120.544L78.661 0L60.2719 43.9063Z" fill="#EC3910"/>
<rect x="136.215" y="29.4432" width="116.137" height="45.8006" rx="22.9003" fill="#EC3910"/>
<path d="M140.868 56.1724C141.298 55.5985 142.175 55.6511 142.534 56.2724L150.873 70.7164C151.247 71.3645 150.803 72.179 150.055 72.2152L130.161 73.1781C129.315 73.2191 128.805 72.2565 129.312 71.5793L140.868 56.1724Z" fill="#EC3910"/>
<ellipse cx="53.3376" cy="71.9042" rx="8.17868" ry="17.0389" fill="white"/>
<ellipse cx="66.9688" cy="71.9042" rx="8.17868" ry="17.0389" fill="white"/>
<ellipse cx="65.0945" cy="72.5858" rx="5.96362" ry="12.268" fill="#EC3910"/>
<ellipse cx="53.508" cy="72.5858" rx="5.96362" ry="12.268" fill="#EC3910"/>
<path d="M172.616 46.2502H171.416V57.0502H172.616V60.9862H163.544V57.0502H164.696V53.0902H161.336V57.0502H162.488V60.9862H153.416V57.0502H154.616V46.2502H153.416V42.3142H162.488V46.2502H161.336V49.8982H164.696V46.2502H163.544V42.3142H172.616V46.2502ZM182.177 61.3222C179.905 61.3222 178.129 60.7302 176.849 59.5462C175.569 58.3462 174.929 56.6022 174.929 54.3142C174.929 52.0262 175.569 50.2902 176.849 49.1062C178.129 47.9062 179.905 47.3062 182.177 47.3062C184.433 47.3062 186.057 47.8982 187.049 49.0822C188.057 50.2502 188.561 51.7062 188.561 53.4502V55.1782H180.785V55.3222C180.785 55.9142 180.961 56.3542 181.313 56.6422C181.665 56.9142 182.249 57.0502 183.065 57.0502C184.041 57.0502 184.969 56.9782 185.849 56.8342C186.729 56.6902 187.497 56.5062 188.153 56.2822V60.1222C187.593 60.4262 186.769 60.7062 185.681 60.9622C184.609 61.2022 183.441 61.3222 182.177 61.3222ZM183.569 52.5382V52.2502C183.569 51.7062 183.449 51.3142 183.209 51.0742C182.985 50.8342 182.641 50.7142 182.177 50.7142C181.713 50.7142 181.361 50.8422 181.121 51.0982C180.897 51.3382 180.785 51.7222 180.785 52.2502V52.5382H183.569ZM190.775 61.0102V57.0502H191.831V46.2502H190.775V42.3142H197.351V57.0502H198.407V61.0102H190.775ZM200.665 61.0102V57.0502H201.721V46.2502H200.665V42.3142H207.241V57.0502H208.297V61.0102H200.665ZM217.708 61.3222C215.436 61.3222 213.66 60.7302 212.38 59.5462C211.1 58.3462 210.46 56.6022 210.46 54.3142C210.46 52.0262 211.1 50.2902 212.38 49.1062C213.66 47.9062 215.436 47.3062 217.708 47.3062C220.012 47.3062 221.796 47.9142 223.06 49.1302C224.324 50.3302 224.956 52.0582 224.956 54.3142C224.956 56.6022 224.316 58.3462 223.036 59.5462C221.756 60.7302 219.98 61.3222 217.708 61.3222ZM217.708 57.0502C218.172 57.0502 218.516 56.9302 218.74 56.6902C218.98 56.4342 219.1 56.0422 219.1 55.5142V53.1142C219.1 52.5862 218.98 52.2022 218.74 51.9622C218.516 51.7062 218.172 51.5782 217.708 51.5782C217.244 51.5782 216.892 51.7062 216.652 51.9622C216.428 52.2022 216.316 52.5862 216.316 53.1142V55.5142C216.316 56.0422 216.428 56.4342 216.652 56.6902C216.892 56.9302 217.244 57.0502 217.708 57.0502ZM228.372 55.7302L227.268 43.5142V42.3142H234.444V43.5142L233.316 55.7302H228.372ZM228.132 60.9862V57.0502H233.556V60.9862H228.132Z" fill="white"/>
</svg>
